<svg width="20" height="20" viewBox="0 0 20 20" fill="none" xmlns="http://www.w3.org/2000/svg">
<g id="Frame">
<g id="Group">
<path id="Vector" d="M9.58333 10.2033C12.1146 10.2033 14.1667 8.15132 14.1667 5.62002C14.1667 3.08871 12.1146 1.03668 9.58333 1.03668C7.05203 1.03668 5 3.08871 5 5.62002C5 8.15132 7.05203 10.2033 9.58333 10.2033Z" fill="white" fill-opacity="0.6"/>
<path id="Vector_2" fill-rule="evenodd" clip-rule="evenodd" d="M10.7708 18.13C9.8724 17.1677 9.37342 15.8999 9.37496 14.5834C9.37496 13.1809 9.9308 11.9067 10.8341 10.97C10.4258 10.9384 10.0083 10.9217 9.5833 10.9217C6.81496 10.9217 4.36413 11.6142 2.84246 12.6517C1.68163 13.4434 1.04163 14.4492 1.04163 15.505V16.7134C1.0413 16.8995 1.07772 17.0839 1.14879 17.2559C1.21987 17.4279 1.32421 17.5842 1.45583 17.7158C1.58744 17.8474 1.74374 17.9518 1.91577 18.0229C2.0878 18.0939 2.27216 18.1304 2.45829 18.13H10.7708Z" fill="white" fill-opacity="0.6"/>
<path id="Vector_3" fill-rule="evenodd" clip-rule="evenodd" d="M14.5833 10.2084C12.1683 10.2084 10.2083 12.1684 10.2083 14.5834C10.2083 16.9984 12.1683 18.9584 14.5833 18.9584C16.9983 18.9584 18.9583 16.9984 18.9583 14.5834C18.9583 12.1684 16.9983 10.2084 14.5833 10.2084ZM12.5699 15.3117L13.8199 16.145C13.9401 16.2251 14.0844 16.261 14.2281 16.2467C14.3718 16.2325 14.5061 16.1688 14.6083 16.0667L16.6916 13.9834C16.8087 13.8662 16.8745 13.7074 16.8745 13.5417C16.8745 13.3761 16.8087 13.2172 16.6916 13.1C16.5744 12.9829 16.4156 12.9171 16.2499 12.9171C16.0843 12.9171 15.9254 12.9829 15.8083 13.1L14.0866 14.8209L13.2633 14.2717C13.1253 14.1819 12.9576 14.1502 12.7964 14.1833C12.6352 14.2165 12.4936 14.3119 12.4023 14.4488C12.311 14.5858 12.2774 14.7532 12.3088 14.9147C12.3402 15.0763 12.434 15.2189 12.5699 15.3117Z" fill="white" fill-opacity="0.6"/>
</g>
</g>
</svg>
