<svg xmlns="http://www.w3.org/2000/svg" width="14" height="14" viewBox="0 0 14 14" fill="none">
  <path d="M11.0833 2.91669H10.5V1.75002C10.5 1.59531 10.4385 1.44694 10.3291 1.33754C10.2197 1.22815 10.0714 1.16669 9.91666 1.16669C9.76195 1.16669 9.61357 1.22815 9.50418 1.33754C9.39478 1.44694 9.33332 1.59531 9.33332 1.75002V2.91669H4.66666V1.75002C4.66666 1.59531 4.6052 1.44694 4.4958 1.33754C4.38641 1.22815 4.23803 1.16669 4.08332 1.16669C3.92861 1.16669 3.78024 1.22815 3.67084 1.33754C3.56145 1.44694 3.49999 1.59531 3.49999 1.75002V2.91669H2.91666C2.45253 2.91669 2.00741 3.10106 1.67922 3.42925C1.35103 3.75744 1.16666 4.20256 1.16666 4.66669V5.25002H12.8333V4.66669C12.8333 4.20256 12.6489 3.75744 12.3208 3.42925C11.9926 3.10106 11.5475 2.91669 11.0833 2.91669ZM1.16666 11.0834C1.16666 11.5475 1.35103 11.9926 1.67922 12.3208C2.00741 12.649 2.45253 12.8334 2.91666 12.8334H11.0833C11.5475 12.8334 11.9926 12.649 12.3208 12.3208C12.6489 11.9926 12.8333 11.5475 12.8333 11.0834V6.41669H1.16666V11.0834Z" fill="#7072FF"/>
</svg>