<svg width="14" height="14" viewBox="0 0 14 14" fill="none" xmlns="http://www.w3.org/2000/svg">
<g id="Frame">
<g id="Group">
<g id="Layer 93">
<path id="Vector" d="M11.0833 2.91669H10.5V1.75002C10.5 1.59531 10.4385 1.44694 10.3292 1.33754C10.2198 1.22815 10.0714 1.16669 9.91667 1.16669C9.76196 1.16669 9.61359 1.22815 9.50419 1.33754C9.3948 1.44694 9.33334 1.59531 9.33334 1.75002V2.91669H4.66667V1.75002C4.66667 1.59531 4.60521 1.44694 4.49582 1.33754C4.38642 1.22815 4.23805 1.16669 4.08334 1.16669C3.92863 1.16669 3.78026 1.22815 3.67086 1.33754C3.56146 1.44694 3.50001 1.59531 3.50001 1.75002V2.91669H2.91667C2.45254 2.91669 2.00742 3.10106 1.67923 3.42925C1.35105 3.75744 1.16667 4.20256 1.16667 4.66669V5.25002H12.8333V4.66669C12.8333 4.20256 12.649 3.75744 12.3208 3.42925C11.9926 3.10106 11.5475 2.91669 11.0833 2.91669ZM1.16667 11.0834C1.16667 11.5475 1.35105 11.9926 1.67923 12.3208C2.00742 12.649 2.45254 12.8334 2.91667 12.8334H11.0833C11.5475 12.8334 11.9926 12.649 12.3208 12.3208C12.649 11.9926 12.8333 11.5475 12.8333 11.0834V6.41669H1.16667V11.0834Z" fill="white"/>
</g>
</g>
</g>
</svg>
