<svg width="25" height="25" viewBox="0 0 25 25" fill="none" xmlns="http://www.w3.org/2000/svg">
<g clip-path="url(#clip0_56_2580)">
<path opacity="0.2" d="M9.0918 16.9899C9.0918 17.4349 8.95984 17.8699 8.7126 18.2399C8.46537 18.6099 8.11397 18.8983 7.70283 19.0686C7.2917 19.2389 6.8393 19.2835 6.40284 19.1966C5.96639 19.1098 5.56547 18.8955 5.25081 18.5809C4.93614 18.2662 4.72185 17.8653 4.63503 17.4288C4.54821 16.9924 4.59277 16.54 4.76307 16.1288C4.93337 15.7177 5.22175 15.3663 5.59176 15.1191C5.96177 14.8718 6.39679 14.7399 6.8418 14.7399C7.43853 14.7399 8.01083 14.9769 8.43279 15.3989C8.85474 15.8208 9.0918 16.3931 9.0918 16.9899ZM18.8418 14.7399C18.3968 14.7399 17.9618 14.8718 17.5918 15.1191C17.2218 15.3663 16.9334 15.7177 16.7631 16.1288C16.5928 16.54 16.5482 16.9924 16.635 17.4288C16.7218 17.8653 16.9361 18.2662 17.2508 18.5809C17.5655 18.8955 17.9664 19.1098 18.4028 19.1966C18.8393 19.2835 19.2917 19.2389 19.7028 19.0686C20.114 18.8983 20.4654 18.6099 20.7126 18.2399C20.9598 17.8699 21.0918 17.4349 21.0918 16.9899C21.0918 16.3931 20.8547 15.8208 20.4328 15.3989C20.0108 14.9769 19.4385 14.7399 18.8418 14.7399ZM16.0612 7.45924C15.9206 7.31886 15.7301 7.23996 15.5315 7.23987H4.99305C4.86954 7.23979 4.74792 7.27021 4.639 7.32843C4.53008 7.38666 4.43722 7.47088 4.36867 7.57362L1.5918 11.7399H20.3418L16.0612 7.45924Z" fill="white"/>
<path d="M23.3418 10.9899H20.6521L16.5918 6.92956C16.453 6.78967 16.2878 6.67876 16.1058 6.60328C15.9238 6.52779 15.7285 6.48925 15.5315 6.48988H4.99305C4.74667 6.49033 4.50419 6.55147 4.28705 6.66789C4.06991 6.78431 3.88479 6.95242 3.74805 7.15738L0.967422 11.3236C0.885721 11.4471 0.842041 11.5918 0.841797 11.7399L0.841797 16.2399C0.841797 16.6377 0.999832 17.0192 1.28114 17.3005C1.56244 17.5818 1.94397 17.7399 2.3418 17.7399H3.93555C4.10077 18.3852 4.47607 18.9572 5.00228 19.3656C5.52849 19.7741 6.17567 19.9958 6.8418 19.9958C7.50792 19.9958 8.15511 19.7741 8.68131 19.3656C9.20752 18.9572 9.58282 18.3852 9.74805 17.7399H15.9355C16.1008 18.3852 16.4761 18.9572 17.0023 19.3656C17.5285 19.7741 18.1757 19.9958 18.8418 19.9958C19.5079 19.9958 20.1551 19.7741 20.6813 19.3656C21.2075 18.9572 21.5828 18.3852 21.748 17.7399H23.3418C23.7396 17.7399 24.1212 17.5818 24.4025 17.3005C24.6838 17.0192 24.8418 16.6377 24.8418 16.2399V12.4899C24.8418 12.0921 24.6838 11.7105 24.4025 11.4292C24.1212 11.1479 23.7396 10.9899 23.3418 10.9899ZM4.99305 7.98988H15.5315L18.5315 10.9899H2.99805L4.99305 7.98988ZM6.8418 18.4899C6.54512 18.4899 6.25512 18.4019 6.00844 18.2371C5.76177 18.0723 5.56951 17.838 5.45598 17.5639C5.34245 17.2898 5.31274 16.9882 5.37062 16.6972C5.4285 16.4063 5.57136 16.139 5.78114 15.9292C5.99092 15.7194 6.25819 15.5766 6.54916 15.5187C6.84013 15.4608 7.14173 15.4905 7.41582 15.6041C7.68991 15.7176 7.92418 15.9098 8.089 16.1565C8.25382 16.4032 8.3418 16.6932 8.3418 16.9899C8.3418 17.3877 8.18376 17.7692 7.90246 18.0505C7.62115 18.3318 7.23962 18.4899 6.8418 18.4899ZM18.8418 18.4899C18.5451 18.4899 18.2551 18.4019 18.0084 18.2371C17.7618 18.0723 17.5695 17.838 17.456 17.5639C17.3424 17.2898 17.3127 16.9882 17.3706 16.6972C17.4285 16.4063 17.5714 16.139 17.7811 15.9292C17.9909 15.7194 18.2582 15.5766 18.5492 15.5187C18.8401 15.4608 19.1417 15.4905 19.4158 15.6041C19.6899 15.7176 19.9242 15.9098 20.089 16.1565C20.2538 16.4032 20.3418 16.6932 20.3418 16.9899C20.3418 17.3877 20.1838 17.7692 19.9025 18.0505C19.6212 18.3318 19.2396 18.4899 18.8418 18.4899ZM23.3418 16.2399H21.748C21.5828 15.5946 21.2075 15.0226 20.6813 14.6141C20.1551 14.2057 19.5079 13.984 18.8418 13.984C18.1757 13.984 17.5285 14.2057 17.0023 14.6141C16.4761 15.0226 16.1008 15.5946 15.9355 16.2399H9.74805C9.58282 15.5946 9.20752 15.0226 8.68131 14.6141C8.15511 14.2057 7.50792 13.984 6.8418 13.984C6.17567 13.984 5.52849 14.2057 5.00228 14.6141C4.47607 15.0226 4.10077 15.5946 3.93555 16.2399H2.3418V12.4899H23.3418V16.2399Z" fill="white"/>
</g>
<defs>
<clipPath id="clip0_56_2580">
<rect width="24" height="24" fill="white" transform="translate(0.841797 0.489868)"/>
</clipPath>
</defs>
</svg>
