<svg width="14" height="14" viewBox="0 0 14 14" fill="none" xmlns="http://www.w3.org/2000/svg">
<g id="Frame" clip-path="url(#clip0_17_169)">
<g id="Group">
<path id="Vector" d="M8.94706 6.35961C8.39768 6.05601 7.81361 5.82469 7.23531 5.5847C6.8999 5.44591 6.57895 5.28399 6.29559 5.05845C5.73754 4.61317 5.84452 3.8903 6.49799 3.60405C6.68304 3.52309 6.87677 3.49706 7.07339 3.4855C7.83095 3.44502 8.55093 3.58381 9.2362 3.91343C9.5774 4.07825 9.69016 4.0262 9.80582 3.67055C9.92726 3.29466 10.0285 2.91299 10.1412 2.53421C10.2164 2.27976 10.1239 2.11205 9.88389 2.00507C9.44439 1.81134 8.99332 1.67255 8.51912 1.59737C7.90035 1.50195 7.90035 1.49906 7.89746 0.877398C7.89457 0.00128511 7.89457 0.00128509 7.01556 0.00128509C6.88834 0.00128509 6.76111 -0.00160637 6.63389 0.00128509C6.2233 0.0128509 6.15391 0.0851375 6.14234 0.498617C6.13656 0.68367 6.14234 0.868724 6.13945 1.05667C6.13656 1.60605 6.13367 1.59737 5.60742 1.78821C4.33518 2.25084 3.5487 3.11828 3.46485 4.50618C3.38967 5.73505 4.03157 6.5649 5.04069 7.16922C5.66236 7.54222 6.35053 7.76197 7.00978 8.05401C7.26712 8.16678 7.51289 8.29689 7.72686 8.47616C8.36009 8.99952 8.24443 9.86985 7.49265 10.1995C7.09074 10.3759 6.66569 10.4192 6.22908 10.3643C5.55537 10.2804 4.91058 10.1041 4.30337 9.78889C3.94772 9.60383 3.84363 9.65299 3.72219 10.0376C3.61809 10.3701 3.52557 10.7055 3.43304 11.0409C3.30871 11.492 3.35497 11.5989 3.7858 11.81C4.33518 12.076 4.92214 12.2119 5.52068 12.3073C5.98909 12.3825 6.00355 12.4028 6.00933 12.8885C6.01222 13.1083 6.01222 13.3309 6.01512 13.5507C6.01801 13.8283 6.15102 13.9902 6.43727 13.996C6.76111 14.0017 7.08785 14.0017 7.41169 13.9931C7.67771 13.9873 7.81361 13.8427 7.81361 13.5738C7.81361 13.2731 7.82806 12.9695 7.8165 12.6688C7.80204 12.3623 7.93505 12.2061 8.22998 12.1252C8.90947 11.9401 9.48776 11.5758 9.93305 11.0322C11.1706 9.52865 10.6993 7.32825 8.94706 6.35961Z" fill="white" fill-opacity="0.8"/>
</g>
</g>
<defs>
<clipPath id="clip0_17_169">
<rect width="14" height="14" fill="white"/>
</clipPath>
</defs>
</svg>
