<svg width="16" height="17" viewBox="0 0 16 17" fill="none" xmlns="http://www.w3.org/2000/svg">
<g id="Frame">
<g id="Group">
<g id="Group_2">
<path id="Vector" fill-rule="evenodd" clip-rule="evenodd" d="M10.6059 3.08273C10.9787 2.70983 11.4844 2.50031 12.0117 2.50024C12.539 2.50018 13.0447 2.70959 13.4176 3.08239C13.7905 3.4552 14 3.96087 14.0001 4.48816C14.0001 5.01545 13.7907 5.52116 13.4179 5.89406L12.6819 6.63006C12.5569 6.75504 12.3874 6.82525 12.2106 6.82525C12.0338 6.82525 11.8643 6.75504 11.7392 6.63006L9.86991 4.76006C9.74493 4.63504 9.67472 4.4655 9.67472 4.28873C9.67472 4.11195 9.74493 3.94241 9.86991 3.81739L10.6059 3.08273ZM8.92658 5.70339C8.80156 5.57841 8.63202 5.5082 8.45524 5.5082C8.27847 5.5082 8.10893 5.57841 7.98391 5.70339L3.33991 10.3474C2.91274 10.7746 2.60972 11.3099 2.46324 11.8961L2.01924 13.6714C1.99126 13.7831 1.9927 13.9002 2.02342 14.0112C2.05414 14.1222 2.11309 14.2233 2.19453 14.3048C2.27597 14.3862 2.37712 14.4452 2.48812 14.4759C2.59912 14.5066 2.71619 14.508 2.82791 14.4801L4.60324 14.0361C5.18937 13.8896 5.72467 13.5866 6.15191 13.1594L10.7959 8.51539C10.9209 8.39037 10.9911 8.22084 10.9911 8.04406C10.9911 7.86728 10.9209 7.69774 10.7959 7.57273L8.92658 5.70339ZM7.99991 13.8334C7.99991 13.6566 8.07015 13.487 8.19517 13.362C8.3202 13.237 8.48977 13.1667 8.66658 13.1667H13.3332C13.5101 13.1667 13.6796 13.237 13.8046 13.362C13.9297 13.487 13.9999 13.6566 13.9999 13.8334C13.9999 14.0102 13.9297 14.1798 13.8046 14.3048C13.6796 14.4298 13.5101 14.5001 13.3332 14.5001H8.66658C8.48977 14.5001 8.3202 14.4298 8.19517 14.3048C8.07015 14.1798 7.99991 14.0102 7.99991 13.8334Z" fill="black"/>
</g>
</g>
</g>
</svg>
