<svg width="20" height="20" viewBox="0 0 20 20" fill="none" xmlns="http://www.w3.org/2000/svg">
<g id="Frame" clip-path="url(#clip0_4_247)">
<g id="Group">
<g id="Clip path group">
<mask id="mask0_4_247" style="mask-type:luminance" maskUnits="userSpaceOnUse" x="0" y="0" width="20" height="20">
<g id="a">
<path id="Vector" d="M0 0H20V20H0V0Z" fill="white"/>
</g>
</mask>
<g mask="url(#mask0_4_247)">
<g id="Group_2">
<path id="Vector_2" d="M3.33329 9.58333V12.9167C3.33329 13.6083 3.89163 14.1667 4.58329 14.1667C5.27496 14.1667 5.83329 13.6083 5.83329 12.9167V9.58333C5.83329 8.89166 5.27496 8.33333 4.58329 8.33333C3.89163 8.33333 3.33329 8.89166 3.33329 9.58333ZM8.33329 9.58333V12.9167C8.33329 13.6083 8.89163 14.1667 9.58329 14.1667C10.275 14.1667 10.8333 13.6083 10.8333 12.9167V9.58333C10.8333 8.89166 10.275 8.33333 9.58329 8.33333C8.89163 8.33333 8.33329 8.89166 8.33329 9.58333ZM2.91663 18.3333H16.25C16.9416 18.3333 17.5 17.775 17.5 17.0833C17.5 16.3917 16.9416 15.8333 16.25 15.8333H2.91663C2.22496 15.8333 1.66663 16.3917 1.66663 17.0833C1.66663 17.775 2.22496 18.3333 2.91663 18.3333ZM13.3333 9.58333V12.9167C13.3333 13.6083 13.8916 14.1667 14.5833 14.1667C15.275 14.1667 15.8333 13.6083 15.8333 12.9167V9.58333C15.8333 8.89166 15.275 8.33333 14.5833 8.33333C13.8916 8.33333 13.3333 8.89166 13.3333 9.58333ZM8.80829 1.24166L2.22496 4.70833C1.88329 4.88333 1.66663 5.24166 1.66663 5.625C1.66663 6.2 2.13329 6.66666 2.70829 6.66666H16.4666C17.0333 6.66666 17.5 6.2 17.5 5.625C17.5 5.24166 17.2833 4.88333 16.9416 4.70833L10.3583 1.24166C9.87496 0.983329 9.29163 0.983329 8.80829 1.24166Z" fill="white" fill-opacity="0.6"/>
</g>
</g>
</g>
</g>
</g>
<defs>
<clipPath id="clip0_4_247">
<rect width="20" height="20" fill="white"/>
</clipPath>
</defs>
</svg>
