<svg width="24" height="24" viewBox="0 0 24 24" fill="none" xmlns="http://www.w3.org/2000/svg">
<g id="AirplaneTakeoff">
<path id="Vector" opacity="0.2" d="M22.4999 8.59135L8.68021 16.8414C8.12195 17.1664 7.47367 17.3026 6.8318 17.2296C6.18993 17.1566 5.58877 16.8784 5.11771 16.4364L1.73709 13.1251C1.64617 13.0399 1.57792 12.9333 1.5385 12.8151C1.49909 12.6969 1.48975 12.5707 1.51134 12.448C1.53293 12.3253 1.58476 12.2098 1.66215 12.1122C1.73953 12.0145 1.84004 11.9376 1.95459 11.8885L2.2499 11.7442L5.23021 12.7501L8.2499 10.9229L5.49834 8.2501C5.40474 8.16588 5.33386 8.05945 5.29222 7.94063C5.25058 7.82181 5.23952 7.69441 5.26007 7.57019C5.28062 7.44597 5.33211 7.32892 5.40979 7.22984C5.48748 7.13075 5.58886 7.05282 5.70459 7.00323L6.3749 6.7501L11.7683 8.73479L16.9096 5.66448C17.5267 5.3013 18.2534 5.17085 18.9584 5.29671C19.6633 5.42256 20.3 5.79642 20.7533 6.35073L22.4999 8.59135Z" fill="white"/>
<path id="Vector_2" d="M16.5 20.2499C16.5 20.4488 16.421 20.6396 16.2804 20.7803C16.1397 20.9209 15.949 20.9999 15.75 20.9999H2.25005C2.05114 20.9999 1.86037 20.9209 1.71972 20.7803C1.57907 20.6396 1.50005 20.4488 1.50005 20.2499C1.50005 20.051 1.57907 19.8603 1.71972 19.7196C1.86037 19.579 2.05114 19.4999 2.25005 19.4999H15.75C15.949 19.4999 16.1397 19.579 16.2804 19.7196C16.421 19.8603 16.5 20.051 16.5 20.2499ZM23.2369 8.73275C23.2173 8.83713 23.1757 8.93616 23.115 9.02327C23.0542 9.11038 22.9756 9.1836 22.8844 9.23806L9.06474 17.4881C8.48868 17.8259 7.83316 18.0045 7.16536 18.0056C6.21409 18.0045 5.29919 17.6399 4.60786 16.9865L4.59661 16.9752L1.2188 13.6687C1.04008 13.499 0.905938 13.2878 0.828227 13.0539C0.750515 12.8201 0.731632 12.5706 0.773246 12.3277C0.814861 12.0848 0.915691 11.8559 1.06682 11.6612C1.21795 11.4665 1.41472 11.312 1.63974 11.2115L1.92099 11.0737C2.0986 10.9865 2.30348 10.973 2.49099 11.0362L5.14036 11.9306L7.0313 10.7868L4.98474 8.80025C4.80069 8.63068 4.66198 8.41777 4.58127 8.18089C4.50055 7.94401 4.48038 7.6907 4.52259 7.44404C4.5648 7.19737 4.66806 6.96518 4.82296 6.76863C4.97785 6.57207 5.17946 6.4174 5.40942 6.31869L5.43942 6.3065L6.10974 6.05243C6.27874 5.98942 6.46479 5.98942 6.6338 6.05243L11.6907 7.91056L16.5254 5.02493C17.2958 4.56639 18.2056 4.40045 19.0883 4.55744C19.971 4.71443 20.7678 5.18387 21.3329 5.87994L21.3441 5.894L23.0916 8.13369C23.1569 8.21754 23.2036 8.31432 23.2287 8.4176C23.2537 8.52088 23.2565 8.6283 23.2369 8.73275ZM21.3863 8.38587L20.1675 6.82306C19.8283 6.40809 19.3515 6.12859 18.8237 6.03535C18.2959 5.9421 17.7522 6.04131 17.2913 6.31494L12.1538 9.38244C12.0576 9.43949 11.9499 9.47446 11.8385 9.48484C11.7271 9.49521 11.6148 9.48073 11.5097 9.44244L6.37505 7.55431L6.00005 7.69775L6.01974 7.7165L8.77224 10.3874C8.85444 10.4673 8.91724 10.565 8.95582 10.6729C8.9944 10.7808 9.00773 10.8962 8.99478 11.01C8.98184 11.1239 8.94296 11.2333 8.88114 11.3298C8.81932 11.4264 8.73621 11.5074 8.63817 11.5668L5.61849 13.394C5.52507 13.4504 5.42047 13.4858 5.31198 13.4976C5.20349 13.5094 5.09373 13.4974 4.99036 13.4624L2.30255 12.5559L2.28474 12.5652L2.25005 12.5812C2.25456 12.5844 2.25866 12.5882 2.26224 12.5924L5.63724 15.8981C5.98946 16.2291 6.43945 16.437 6.91979 16.4907C7.40012 16.5445 7.88495 16.4411 8.30161 16.1962L21.3863 8.38587Z" fill="white"/>
</g>
</svg>
