<svg xmlns="http://www.w3.org/2000/svg" width="20" height="20" viewBox="0 0 20 20" fill="none">
  <path d="M7.14313 10C7.8496 10 8.54021 9.79051 9.12762 9.398C9.71502 9.00549 10.1728 8.4476 10.4432 7.79489C10.7135 7.14218 10.7842 6.42396 10.6463 5.73107C10.5084 5.03818 10.1682 4.40173 9.6686 3.90222C9.169 3.40271 8.5325 3.06257 7.83958 2.92482C7.14666 2.78707 6.42846 2.85789 5.77579 3.12834C5.12313 3.39878 4.56532 3.85669 4.17292 4.44417C3.78051 5.03164 3.57113 5.72229 3.57125 6.42876C3.57224 7.37572 3.9489 8.2836 4.61856 8.95314C5.28822 9.62268 6.19617 9.99919 7.14313 10ZM11.8156 12.9506C10.9105 12.0223 9.7492 11.3848 8.48003 11.1196C7.21086 10.8544 5.89145 10.9735 4.69033 11.4618C3.48921 11.9501 2.46091 12.7854 1.73679 13.8609C1.01266 14.9365 0.625586 16.2034 0.625 17.5C0.625 17.6658 0.690848 17.8247 0.808058 17.942C0.925268 18.0592 1.08424 18.125 1.25 18.125H13.0375C13.2033 18.125 13.3622 18.0592 13.4794 17.942C13.5967 17.8247 13.6625 17.6658 13.6625 17.5C13.6649 16.8373 13.5626 16.1783 13.3594 15.5475C13.0568 14.5723 12.5278 13.6824 11.8156 12.9506Z" fill="white" fill-opacity="0.6"/>
  <path d="M14.6875 10.3125C16.1545 10.3125 17.3438 9.12326 17.3438 7.65625C17.3438 6.18924 16.1545 5 14.6875 5C13.2205 5 12.0312 6.18924 12.0312 7.65625C12.0312 9.12326 13.2205 10.3125 14.6875 10.3125Z" fill="white" fill-opacity="0.6"/>
  <path d="M14.6875 11.0438C13.8497 11.0469 13.0281 11.2751 12.3087 11.7044C12.4443 11.8256 12.5812 11.945 12.7093 12.0763C13.5604 12.951 14.1925 14.0145 14.5543 15.18C14.6783 15.5637 14.7696 15.9572 14.8275 16.3563H18.75C18.9157 16.3563 19.0747 16.2904 19.1919 16.1732C19.3091 16.056 19.375 15.897 19.375 15.7313C19.3736 14.4885 18.8794 13.297 18.0006 12.4182C17.1218 11.5394 15.9303 11.0451 14.6875 11.0438Z" fill="white" fill-opacity="0.6"/>
</svg>