<svg width="25" height="25" viewBox="0 0 25 25" fill="none" xmlns="http://www.w3.org/2000/svg">
<g clip-path="url(#clip0_56_2577)">
<path opacity="0.2" d="M23.9678 11.1252V16.3752H11.2178V8.12524H20.9678C21.7634 8.12524 22.5265 8.44131 23.0891 9.00392C23.6517 9.56653 23.9678 10.3296 23.9678 11.1252Z" fill="white"/>
<path d="M20.9678 7.37524H3.71777V5.12524C3.71777 4.92633 3.63876 4.73557 3.4981 4.59491C3.35745 4.45426 3.16669 4.37524 2.96777 4.37524C2.76886 4.37524 2.5781 4.45426 2.43744 4.59491C2.29679 4.73557 2.21777 4.92633 2.21777 5.12524V20.1252C2.21777 20.3242 2.29679 20.5149 2.43744 20.6556C2.5781 20.7962 2.76886 20.8752 2.96777 20.8752C3.16669 20.8752 3.35745 20.7962 3.4981 20.6556C3.63876 20.5149 3.71777 20.3242 3.71777 20.1252V17.1252H23.2178V20.1252C23.2178 20.3242 23.2968 20.5149 23.4374 20.6556C23.5781 20.7962 23.7689 20.8752 23.9678 20.8752C24.1667 20.8752 24.3575 20.7962 24.4981 20.6556C24.6388 20.5149 24.7178 20.3242 24.7178 20.1252V11.1252C24.7178 10.1307 24.3227 9.17686 23.6194 8.47359C22.9162 7.77033 21.9623 7.37524 20.9678 7.37524ZM3.71777 8.87524H10.4678V15.6252H3.71777V8.87524ZM11.9678 15.6252V8.87524H20.9678C21.5645 8.87524 22.1368 9.1123 22.5588 9.53425C22.9807 9.95621 23.2178 10.5285 23.2178 11.1252V15.6252H11.9678Z" fill="white"/>
</g>
<defs>
<clipPath id="clip0_56_2577">
<rect width="24" height="24" fill="white" transform="translate(0.717773 0.625244)"/>
</clipPath>
</defs>
</svg>
