<svg xmlns="http://www.w3.org/2000/svg" width="18" height="18" viewBox="0 0 18 18" fill="none">
  <g opacity="0.5">
    <path d="M13.5121 7.08589V4.96189C13.5121 2.47501 11.4902 0.450012 9.00005 0.450012C6.51317 0.450012 4.48817 2.47501 4.48817 4.96207V7.08607C3.44705 7.17301 2.62805 8.05177 2.62805 9.11377V11.646C2.62805 14.901 5.27405 17.55 8.52899 17.55H9.47111C12.7261 17.55 15.3721 14.901 15.3721 11.646V9.11395C15.3721 8.05195 14.5532 7.17301 13.5121 7.08589ZM6.44117 4.96189C6.58139 1.57123 11.4189 1.57213 11.5591 4.96189V7.07707H6.44117V4.96189ZM8.28617 12.5491C7.23317 11.8622 7.74689 10.183 9.00023 10.1941C10.2534 10.1835 10.7678 11.8613 9.71411 12.5491C9.63311 12.6031 9.58217 12.6992 9.58217 12.7982V13.8512C9.56273 14.6176 8.43845 14.6193 8.41811 13.8512V12.798C8.41811 12.699 8.36717 12.6031 8.28617 12.5491Z" fill="#92959C"/>
  </g>
</svg>