<svg width="18" height="18" viewBox="0 0 18 18" fill="none" xmlns="http://www.w3.org/2000/svg">
<g id="Frame" opacity="0.5">
<g id="Group">
<path id="Vector" fill-rule="evenodd" clip-rule="evenodd" d="M2.20931 3.45813L7.07212 8.32305C8.13271 9.3816 9.86641 9.38252 10.9279 8.32305L15.7907 3.45813C15.8022 3.44669 15.811 3.43287 15.8166 3.41764C15.8222 3.40241 15.8243 3.38615 15.8229 3.36999C15.8214 3.35384 15.8165 3.33821 15.8083 3.32419C15.8002 3.31017 15.789 3.29812 15.7757 3.28888C15.2797 2.94298 14.6763 2.73792 14.0262 2.73792H3.9738C3.32372 2.73792 2.72027 2.94302 2.22428 3.28888C2.21096 3.29812 2.19982 3.31017 2.19167 3.32419C2.18353 3.33821 2.17856 3.35384 2.17713 3.36999C2.1757 3.38615 2.17784 3.40241 2.1834 3.41764C2.18896 3.43287 2.19781 3.44669 2.20931 3.45813ZM0.909791 5.80189C0.909395 5.30758 1.02952 4.82063 1.25977 4.38323C1.26781 4.36781 1.27937 4.3545 1.29352 4.34439C1.30767 4.33428 1.324 4.32765 1.3412 4.32504C1.35839 4.32243 1.37595 4.32391 1.39247 4.32937C1.40898 4.33482 1.42397 4.3441 1.43622 4.35644L6.23747 9.15769C7.75788 10.6803 10.2412 10.6812 11.7626 9.15769L16.5638 4.35644C16.5761 4.3441 16.5911 4.33482 16.6076 4.32937C16.6241 4.32391 16.6416 4.32243 16.6588 4.32504C16.676 4.32765 16.6924 4.33428 16.7065 4.34439C16.7207 4.3545 16.7322 4.36781 16.7403 4.38323C16.9705 4.82064 17.0906 5.30758 17.0902 5.80189V12.1981C17.0902 13.8889 15.7149 15.2621 14.0262 15.2621H3.9738C2.28517 15.2621 0.909791 13.8889 0.909791 12.1981V5.80189Z" fill="#92959C"/>
</g>
</g>
</svg>
