<svg width="12" height="13" viewBox="0 0 12 13" fill="none" xmlns="http://www.w3.org/2000/svg">
<g id="Frame" clip-path="url(#clip0_17_498)">
<g id="Group">
<path id="Vector" d="M10.9286 5.42857H7.28571C7.22888 5.42857 7.17438 5.406 7.13419 5.36581C7.094 5.32562 7.07143 5.27112 7.07143 5.21429V1.57143C7.07143 0.979732 6.5917 0.5 6 0.5C5.4083 0.5 4.92857 0.979732 4.92857 1.57143V5.21429C4.92857 5.27112 4.906 5.32562 4.86581 5.36581C4.82562 5.406 4.77112 5.42857 4.71429 5.42857H1.07143C0.479732 5.42857 0 5.9083 0 6.5C0 7.0917 0.479732 7.57143 1.07143 7.57143H4.71429C4.77112 7.57143 4.82562 7.594 4.86581 7.63419C4.906 7.67438 4.92857 7.72888 4.92857 7.78571V11.4286C4.92857 12.0203 5.4083 12.5 6 12.5C6.5917 12.5 7.07143 12.0203 7.07143 11.4286V7.78571C7.07143 7.72888 7.094 7.67438 7.13419 7.63419C7.17438 7.594 7.22888 7.57143 7.28571 7.57143H10.9286C11.5203 7.57143 12 7.0917 12 6.5C12 5.9083 11.5203 5.42857 10.9286 5.42857Z" fill="black"/>
</g>
</g>
<defs>
<clipPath id="clip0_17_498">
<rect width="12" height="12" fill="white" transform="translate(0 0.5)"/>
</clipPath>
</defs>
</svg>
