<svg width="24" height="24" viewBox="0 0 24 24" fill="none" xmlns="http://www.w3.org/2000/svg">
<g id="Rows">
<path id="Vector" opacity="0.2" d="M20.25 14.25V18C20.25 18.1989 20.171 18.3897 20.0303 18.5303C19.8897 18.671 19.6989 18.75 19.5 18.75H4.5C4.30109 18.75 4.11032 18.671 3.96967 18.5303C3.82902 18.3897 3.75 18.1989 3.75 18V14.25C3.75 14.0511 3.82902 13.8603 3.96967 13.7197C4.11032 13.579 4.30109 13.5 4.5 13.5H19.5C19.6989 13.5 19.8897 13.579 20.0303 13.7197C20.171 13.8603 20.25 14.0511 20.25 14.25ZM19.5 5.25H4.5C4.30109 5.25 4.11032 5.32902 3.96967 5.46967C3.82902 5.61032 3.75 5.80109 3.75 6V9.75C3.75 9.94891 3.82902 10.1397 3.96967 10.2803C4.11032 10.421 4.30109 10.5 4.5 10.5H19.5C19.6989 10.5 19.8897 10.421 20.0303 10.2803C20.171 10.1397 20.25 9.94891 20.25 9.75V6C20.25 5.80109 20.171 5.61032 20.0303 5.46967C19.8897 5.32902 19.6989 5.25 19.5 5.25Z" fill="white" fill-opacity="0.8"/>
<path id="Vector_2" d="M19.5 12.75H4.5C4.10218 12.75 3.72064 12.908 3.43934 13.1893C3.15804 13.4706 3 13.8522 3 14.25V18C3 18.3978 3.15804 18.7794 3.43934 19.0607C3.72064 19.342 4.10218 19.5 4.5 19.5H19.5C19.8978 19.5 20.2794 19.342 20.5607 19.0607C20.842 18.7794 21 18.3978 21 18V14.25C21 13.8522 20.842 13.4706 20.5607 13.1893C20.2794 12.908 19.8978 12.75 19.5 12.75ZM19.5 18H4.5V14.25H19.5V18ZM19.5 4.5H4.5C4.10218 4.5 3.72064 4.65804 3.43934 4.93934C3.15804 5.22064 3 5.60218 3 6V9.75C3 10.1478 3.15804 10.5294 3.43934 10.8107C3.72064 11.092 4.10218 11.25 4.5 11.25H19.5C19.8978 11.25 20.2794 11.092 20.5607 10.8107C20.842 10.5294 21 10.1478 21 9.75V6C21 5.60218 20.842 5.22064 20.5607 4.93934C20.2794 4.65804 19.8978 4.5 19.5 4.5ZM19.5 9.75H4.5V6H19.5V9.75Z" fill="white" fill-opacity="0.8"/>
</g>
</svg>
