<svg width="16" height="16" viewBox="0 0 16 16" fill="none" xmlns="http://www.w3.org/2000/svg">
<g id="Frame" clip-path="url(#clip0_17_518)">
<g id="Group">
<path id="Vector" fill-rule="evenodd" clip-rule="evenodd" d="M0.87 2.36137C0.812767 2.13314 0.822232 1.89329 0.897272 1.67028C0.972312 1.44728 1.10977 1.25049 1.29333 1.10329C1.4769 0.956089 1.69884 0.86466 1.93283 0.839857C2.16681 0.815055 2.40299 0.857922 2.61333 0.963367L14.4867 6.90003C14.6911 7.00204 14.8631 7.159 14.9833 7.35331C15.1035 7.54761 15.1671 7.77156 15.1671 8.00003C15.1671 8.22851 15.1035 8.45246 14.9833 8.64676C14.8631 8.84106 14.6911 8.99803 14.4867 9.10003L2.61333 15.0367C2.40299 15.1421 2.16681 15.185 1.93283 15.1602C1.69884 15.1354 1.4769 15.044 1.29333 14.8968C1.10977 14.7496 0.972312 14.5528 0.897272 14.3298C0.822232 14.1068 0.812767 13.8669 0.87 13.6387L2.11333 8.6667L9.33333 8.00003L2.11333 7.33337L0.87 2.36137Z" fill="black"/>
</g>
</g>
<defs>
<clipPath id="clip0_17_518">
<rect width="16" height="16" fill="black"/>
</clipPath>
</defs>
</svg>
