<svg width="25" height="25" viewBox="0 0 25 25" fill="none" xmlns="http://www.w3.org/2000/svg">
<path opacity="0.2" d="M17.8999 17.1411H21.6499V19.3911C21.6499 19.59 21.5709 19.7808 21.4302 19.9214C21.2896 20.0621 21.0988 20.1411 20.8999 20.1411H18.6499C18.451 20.1411 18.2602 20.0621 18.1196 19.9214C17.9789 19.7808 17.8999 19.59 17.8999 19.3911V17.1411ZM3.6499 19.3911C3.6499 19.59 3.72892 19.7808 3.86957 19.9214C4.01022 20.0621 4.20099 20.1411 4.3999 20.1411H6.6499C6.84881 20.1411 7.03958 20.0621 7.18023 19.9214C7.32088 19.7808 7.3999 19.59 7.3999 19.3911V17.1411H3.6499V19.3911ZM18.8655 6.26611C18.7996 6.15194 18.7048 6.05715 18.5905 5.99132C18.4763 5.92548 18.3467 5.89092 18.2149 5.89111H7.0849C6.95306 5.89092 6.8235 5.92548 6.70928 5.99132C6.59505 6.05715 6.5002 6.15194 6.43428 6.26611L3.6499 11.1411H21.6499L18.8655 6.26611Z" fill="white"/>
<path d="M23.1499 10.3911H22.0849L19.5171 5.89675C19.3859 5.66721 19.1963 5.47642 18.9677 5.34373C18.739 5.21103 18.4793 5.14114 18.2149 5.14112H16.158L15.033 2.33425C14.9226 2.05557 14.7308 1.81659 14.4827 1.64839C14.2345 1.48018 13.9415 1.39054 13.6418 1.39112H11.658C11.3579 1.39016 11.0645 1.47963 10.816 1.64786C10.5675 1.81609 10.3755 2.05527 10.2649 2.33425L9.14178 5.14112H7.0849C6.82051 5.14114 6.56082 5.21103 6.33214 5.34373C6.10346 5.47642 5.91392 5.66721 5.78271 5.89675L3.2149 10.3911H2.1499C1.95099 10.3911 1.76022 10.4701 1.61957 10.6108C1.47892 10.7514 1.3999 10.9422 1.3999 11.1411C1.3999 11.34 1.47892 11.5308 1.61957 11.6715C1.76022 11.8121 1.95099 11.8911 2.1499 11.8911H2.8999V19.3911C2.8999 19.7889 3.05794 20.1705 3.33924 20.4518C3.62055 20.7331 4.00208 20.8911 4.3999 20.8911H6.6499C7.04773 20.8911 7.42926 20.7331 7.71056 20.4518C7.99187 20.1705 8.1499 19.7889 8.1499 19.3911V17.8911H17.1499V19.3911C17.1499 19.7889 17.3079 20.1705 17.5892 20.4518C17.8705 20.7331 18.2521 20.8911 18.6499 20.8911H20.8999C21.2977 20.8911 21.6793 20.7331 21.9606 20.4518C22.2419 20.1705 22.3999 19.7889 22.3999 19.3911V11.8911H23.1499C23.3488 11.8911 23.5396 11.8121 23.6802 11.6715C23.8209 11.5308 23.8999 11.34 23.8999 11.1411C23.8999 10.9422 23.8209 10.7514 23.6802 10.6108C23.5396 10.4701 23.3488 10.3911 23.1499 10.3911ZM11.658 2.89112H13.6418L14.5418 5.14112H10.758L11.658 2.89112ZM7.0849 6.64112H18.2149L20.3571 10.3911H4.94271L7.0849 6.64112ZM6.6499 19.3911H4.3999V17.8911H6.6499V19.3911ZM18.6499 19.3911V17.8911H20.8999V19.3911H18.6499ZM20.8999 16.3911H4.3999V11.8911H20.8999V16.3911ZM5.8999 14.1411C5.8999 13.9422 5.97892 13.7514 6.11957 13.6108C6.26022 13.4701 6.45099 13.3911 6.6499 13.3911H8.1499C8.34881 13.3911 8.53958 13.4701 8.68023 13.6108C8.82088 13.7514 8.8999 13.9422 8.8999 14.1411C8.8999 14.34 8.82088 14.5308 8.68023 14.6715C8.53958 14.8121 8.34881 14.8911 8.1499 14.8911H6.6499C6.45099 14.8911 6.26022 14.8121 6.11957 14.6715C5.97892 14.5308 5.8999 14.34 5.8999 14.1411ZM16.3999 14.1411C16.3999 13.9422 16.4789 13.7514 16.6196 13.6108C16.7602 13.4701 16.951 13.3911 17.1499 13.3911H18.6499C18.8488 13.3911 19.0396 13.4701 19.1802 13.6108C19.3209 13.7514 19.3999 13.9422 19.3999 14.1411C19.3999 14.34 19.3209 14.5308 19.1802 14.6715C19.0396 14.8121 18.8488 14.8911 18.6499 14.8911H17.1499C16.951 14.8911 16.7602 14.8121 16.6196 14.6715C16.4789 14.5308 16.3999 14.34 16.3999 14.1411Z" fill="white"/>
</svg>
